<svg width="151" height="151" viewBox="0 0 151 151" fill="none" xmlns="http://www.w3.org/2000/svg">
<path d="M119.408 66.5871C95.2239 52.2089 55.3321 50.8869 32.2449 57.9017C28.5373 59.0273 24.6169 56.9321 23.4935 53.2207C22.3701 49.5074 24.4608 45.5852 28.1709 44.4569C54.6735 36.4025 98.7296 37.9587 126.571 54.5042C129.907 56.4855 131.001 60.7969 129.024 64.1307C127.045 67.4686 122.735 68.569 119.408 66.5871ZM118.616 87.8836C116.92 90.6402 113.321 91.5039 110.571 89.8124C90.4083 77.4047 59.6626 73.8104 35.8086 81.059C32.7153 81.9948 29.4479 80.249 28.5086 77.1577C27.5762 74.0609 29.3212 70.7959 32.409 69.8541C59.6591 61.5764 93.5342 65.5858 116.692 79.8331C119.442 81.5282 120.307 85.134 118.616 87.8836ZM109.436 108.336C108.088 110.549 105.209 111.243 103.007 109.894C85.3879 99.1144 63.212 96.6791 37.0958 102.652C34.5788 103.229 32.0709 101.65 31.4966 99.1312C30.9203 96.6118 32.4913 94.1014 35.0138 93.5265C63.5935 86.9856 88.1093 89.8008 107.885 101.898C110.09 103.246 110.784 106.13 109.436 108.336ZM75.0277 0.00012207C33.5919 0.00012207 0 33.6274 0 75.1095C0 116.595 33.5919 150.222 75.0277 150.222C116.465 150.222 150.055 116.595 150.055 75.1095C150.055 33.6274 116.465 0.00012207 75.0277 0.00012207Z" fill="#1ED760"/>
</svg>
